<svg width="35" height="36" viewBox="0 0 35 36" fill="none" xmlns="http://www.w3.org/2000/svg">
<path d="M20.5733 15.6302C24.3421 15.6302 28.1109 15.6302 31.8796 15.6302C32.9075 15.6302 33.0805 15.8602 33.0139 17.0898C32.811 20.7031 30.4194 23.4993 27.4123 23.5231C22.8685 23.5588 18.3247 23.5152 13.7775 23.531C10.3879 23.5429 8.18922 20.2707 8.06947 17.1413C8.01957 15.8483 8.18922 15.6342 9.26363 15.6342C13.0324 15.6342 16.8012 15.6342 20.57 15.6342L20.5733 15.6302Z" fill="#4DDFD2"/>
<g clip-path="url(#clip0_198_626)">
<ellipse cx="15.2633" cy="31.9039" rx="1.44027" ry="1.97684" fill="#4DDFD2"/>
<ellipse cx="26.7852" cy="31.9039" rx="1.44027" ry="1.97684" fill="#4DDFD2"/>
<path d="M26.7853 34.5726C26.4588 34.5726 26.1419 34.5034 25.8347 34.3651C25.2682 34.1081 24.8457 33.6732 24.596 33.0801C24.3656 32.5266 24.3464 31.9335 24.5384 31.2812L24.5864 31.1132L20.9282 28.5433L17.2699 31.1132L17.3179 31.2812C17.5579 32.0818 17.4811 32.7836 17.0682 33.4458C16.7802 33.9104 16.3769 34.2366 15.868 34.4244C15.6184 34.5133 15.3495 34.5627 15.0807 34.5627C14.2741 34.5627 13.5252 34.1476 13.0835 33.4359C12.4882 32.4871 12.6034 31.2614 13.3523 30.4509C13.794 29.9666 14.3221 29.7195 14.9654 29.6898C15.0038 29.6898 15.0422 29.6898 15.0807 29.6898C15.6376 29.6898 16.1465 29.8875 16.6361 30.2829L16.7706 30.3916L20.112 28.0392L19.8816 27.8316C19.8816 27.8316 19.8335 27.7921 19.8143 27.7723C19.7663 27.7229 19.7183 27.6833 19.6607 27.6438L19.1902 27.3077C17.6635 26.2303 16.0888 25.1233 14.5429 24.0361C14.3893 23.9273 14.1781 23.8581 13.9764 23.8384C12.613 23.7593 11.2783 23.1761 10.2317 22.1976C9.17554 21.2191 8.48421 19.9143 8.26337 18.5207C8.19615 18.1253 8.16735 17.7003 8.15775 17.2654C8.15775 16.6031 8.15775 15.9211 8.15775 15.2688C8.15775 14.7844 8.15775 14.2704 8.15775 13.7762C8.15775 13.5588 8.11934 13.3413 8.06173 13.1535C7.62965 11.7895 7.17836 10.4057 6.74628 9.07135L6.49663 8.30038C6.36221 7.89513 6.27579 7.82594 5.84371 7.82594H1.95498C1.95498 7.82594 1.90697 7.82594 1.87817 7.82594C1.84936 7.82594 1.82055 7.82594 1.79175 7.82594C1.75334 7.82594 1.71493 7.82594 1.68613 7.82594C1.65732 7.82594 1.63812 7.82594 1.60931 7.82594C1.36927 7.82594 1.18684 7.73698 1.06201 7.54918V4.55427C1.18684 4.3467 1.36927 4.25774 1.66693 4.25774H1.67653C2.88636 4.25774 3.80813 4.26763 4.69149 4.26763C5.57486 4.26763 6.3046 4.26763 7.05354 4.25774H7.08234C8.24416 4.25774 9.16594 4.9694 9.502 6.11597C9.94368 7.65791 10.4142 9.21962 10.8751 10.7319C11.0575 11.3348 11.2399 11.9378 11.4224 12.5308C11.4416 12.6 11.4704 12.6593 11.4896 12.7186C11.4896 12.7384 11.5088 12.7582 11.5184 12.7878L11.576 12.9361H21.1874V9.84232C21.1874 7.14393 21.1874 4.3467 21.1874 1.60877C21.1874 1.26282 21.2642 1.07502 21.4755 0.936646H22.5605C22.6757 0.956414 22.8005 0.976182 22.9157 0.986067C23.175 1.0256 23.4438 1.06514 23.7127 1.11456C26.9005 1.70761 29.493 3.38793 31.4325 6.0962C32.5559 7.66779 33.2761 9.46672 33.5737 11.4337C33.6794 12.1651 33.7082 12.8965 33.7178 13.4501C33.7274 14.1518 33.7178 14.8635 33.7178 15.5455C33.7178 16.1287 33.7178 16.7415 33.7178 17.3346C33.7562 20.4382 31.6246 23.1168 28.6576 23.7198C28.5232 23.7494 28.3792 23.7593 28.2351 23.7791C28.1103 23.7889 27.9855 23.8087 27.8607 23.8285C27.6974 23.8581 27.5246 23.8878 27.3806 23.9965C25.8827 25.0442 24.3656 26.1117 22.9061 27.1397L22.1572 27.6636C22.1572 27.6636 22.0996 27.713 22.0612 27.7426C22.042 27.7624 22.0228 27.7723 21.994 27.8019L21.7539 27.9996L22.0036 28.1775C22.8773 28.8002 23.7319 29.4032 24.6344 30.0358L25.1049 30.362L25.2394 30.2433C25.7099 29.848 26.2283 29.6503 26.7853 29.6503C26.9389 29.6503 27.0925 29.6701 27.2557 29.6898C27.7934 29.7887 28.2543 30.0654 28.6192 30.5201C29.3201 31.38 29.3585 32.6156 28.7152 33.5249C28.2639 34.1575 27.5534 34.5331 26.8045 34.5331L26.7853 34.5726ZM15.1095 30.5794C14.2645 30.5794 13.5924 31.2614 13.5828 32.1213C13.5828 32.5464 13.7364 32.9417 14.0245 33.2481C14.3125 33.5447 14.687 33.7127 15.0903 33.7127C15.4935 33.7127 15.8776 33.5447 16.1657 33.2481C16.4537 32.9516 16.6169 32.5562 16.6169 32.1411C16.6169 31.2911 15.9448 30.5893 15.1191 30.5794H15.0999H15.1095ZM26.7853 30.5794C26.3724 30.5794 25.9883 30.7376 25.7099 31.0341C25.4314 31.3306 25.2682 31.7161 25.2682 32.1411C25.2682 33.001 25.9499 33.7127 26.7757 33.7127H26.7853C27.6014 33.7127 28.2831 33.0109 28.3023 32.1609C28.3023 31.7457 28.1583 31.3603 27.8703 31.0538C27.5822 30.7474 27.1981 30.5794 26.7853 30.5794ZM20.9474 27.4955L25.5274 24.2733L25.3258 23.9076H15.8488L20.9474 27.4955ZM9.06032 16.781C9.06032 16.781 9.06032 16.8403 9.06032 16.87C9.06032 16.9392 9.05071 17.0084 9.05071 17.0776C9.05071 17.1764 9.05071 17.2851 9.05071 17.384C9.05071 17.6509 9.05071 17.9276 9.08912 18.1945C9.44439 20.9225 11.7104 22.9784 14.3509 22.9883C16.2137 22.9883 18.182 22.9982 20.3616 22.9982C22.8869 22.9982 25.4122 22.9982 27.563 22.9982C28.9649 22.9982 30.2035 22.4645 31.2405 21.4167C32.4407 20.201 32.9688 18.6788 32.8536 16.781V16.5537H9.07952L9.06032 16.7712V16.781ZM9.06992 15.6444H32.844V13.885H9.06992V15.6444ZM4.7395 6.96602H6.44863C6.90951 6.96602 6.98633 7.02532 7.13035 7.46023C7.31279 8.03351 7.50482 8.6068 7.68726 9.18996L8.15775 10.6429C8.36899 11.2854 8.57062 11.918 8.78186 12.5605C8.89709 12.9163 8.9931 12.9855 9.35797 12.9954C9.47319 12.9954 9.59802 12.9954 9.71324 12.9954H10.6158L10.5294 12.689L10.491 12.5605C10.4718 12.4814 10.4526 12.4221 10.4334 12.3529C9.84767 10.386 9.26195 8.419 8.66664 6.45204C8.39779 5.55257 7.8889 5.16709 6.97672 5.16709C6.36221 5.16709 5.74769 5.16709 5.13318 5.16709C4.25941 5.16709 3.37605 5.16709 2.50228 5.16709H2.42547C2.34865 5.16709 2.28144 5.16709 2.21423 5.17697C2.18542 5.17697 2.15662 5.17697 2.11821 5.17697H1.89737V6.95613H4.7299L4.7395 6.96602ZM30.5684 8.59691C28.3215 9.93128 26.1995 11.1965 24.0583 12.5209L23.3382 12.9657H32.8344V12.7186C32.748 11.1767 32.3735 9.71383 31.663 8.24108L31.5574 8.01374L30.5684 8.59691ZM23.1654 11.5029L23.3574 11.6808L23.4822 11.7994L31.0869 7.27243L30.9716 7.06486C30.3763 5.95783 28.7536 4.28739 27.7454 3.76353L27.5534 3.66469L23.1558 11.493L23.1654 11.5029ZM22.5124 1.89541C22.4068 1.89541 22.3108 1.89541 22.234 1.91518L22.0324 1.94484V10.9691L22.426 11.068L26.8237 3.2199L26.6316 3.10129C25.633 2.44893 23.5302 1.89541 22.5124 1.89541Z" fill="#434A54" stroke="#434A54" stroke-width="0.45"/>
</g>
<defs>
<clipPath id="clip0_198_626">
<rect width="34" height="35" fill="white" transform="translate(0.380371 0.274414)"/>
</clipPath>
</defs>
</svg>
